<svg height='100px' width='100px' fill="#ffffff" xmlns="http://www.w3.org/2000/svg" version="1.1" x="0px" y="0px"
     viewBox="0 0 100 100" style="enable-background:new 0 0 100 100;" xml:space="preserve"><g><path d="M5,24.333313v50c0,11.0457153,8.9542847,20,20,20h50c11.0457153,0,20-8.9542847,20-20v-50c0-11.0457153-8.9542847-20-20-20   H25C13.9542847,4.333313,5,13.2875977,5,24.333313z M7,24.333313c0-9.9252319,8.0747681-18,18-18h50   c9.9252319,0,18,8.0747681,18,18v50c0,9.9252319-8.0747681,18-18,18H25c-9.9252319,0-18-8.0747681-18-18V24.333313z"></path><circle cx="63" cy="25" r="9.5"></circle><circle cx="37" cy="25" r="9.5"></circle><circle cx="37" cy="50" r="9.5"></circle><path d="M55.875,50c0,3.9349976,3.1899414,7.125,7.125,7.125s7.125-3.1900024,7.125-7.125c0-3.9350586-3.1899414-7.125-7.125-7.125   S55.875,46.0649414,55.875,50z M58.25,50c0-2.6192017,2.1308594-4.75,4.75-4.75s4.75,2.1307983,4.75,4.75   c0,2.6191406-2.1308594,4.75-4.75,4.75S58.25,52.6191406,58.25,50z"></path><path d="M55.875,75c0,3.9349976,3.1899414,7.125,7.125,7.125s7.125-3.1900024,7.125-7.125c0-3.9350586-3.1899414-7.125-7.125-7.125   S55.875,71.0649414,55.875,75z M58.25,75c0-2.6192017,2.1308594-4.75,4.75-4.75s4.75,2.1307983,4.75,4.75   c0,2.6191406-2.1308594,4.75-4.75,4.75S58.25,77.6191406,58.25,75z"></path><path d="M29.875,75c0,3.9349976,3.1899414,7.125,7.125,7.125s7.125-3.1900024,7.125-7.125c0-3.9350586-3.1899414-7.125-7.125-7.125   S29.875,71.0649414,29.875,75z M32.25,75c0-2.6192017,2.1308594-4.75,4.75-4.75s4.75,2.1307983,4.75,4.75   c0,2.6191406-2.1308594,4.75-4.75,4.75S32.25,77.6191406,32.25,75z"></path></g></svg>
